<svg xmlns="http://www.w3.org/2000/svg" viewBox="0 0 4169 2495.29"><defs><style>.cls-1{fill:#fff;}.cls-2{fill:#f9b438;}.cls-10,.cls-11,.cls-12,.cls-13,.cls-14,.cls-15,.cls-16,.cls-17,.cls-18,.cls-19,.cls-20,.cls-21,.cls-22,.cls-23,.cls-24,.cls-3,.cls-4,.cls-5,.cls-6,.cls-7,.cls-8,.cls-9{fill:none;stroke-miterlimit:10;}.cls-10,.cls-11,.cls-12,.cls-13,.cls-15,.cls-16,.cls-17,.cls-18,.cls-19,.cls-20,.cls-21,.cls-22,.cls-23,.cls-24,.cls-3,.cls-4,.cls-5,.cls-6,.cls-7,.cls-8,.cls-9{stroke:#fff;}.cls-3{stroke-width:4.82px;}.cls-4{stroke-width:2.8px;}.cls-5{stroke-width:2.41px;}.cls-6{stroke-width:1.86px;}.cls-7{stroke-width:1.68px;}.cls-8{stroke-width:2.41px;}.cls-9{stroke-width:2.36px;}.cls-10{stroke-width:6.31px;}.cls-11{stroke-width:2.61px;}.cls-12{stroke-width:4.2px;}.cls-13{stroke-width:1.21px;}.cls-14{stroke:#f9b438;stroke-width:7.47px;}.cls-15{stroke-width:2.55px;}.cls-16{stroke-width:2.16px;}.cls-17{stroke-width:2.78px;}.cls-18{stroke-width:3.15px;}.cls-19{stroke-width:3.7px;}.cls-20{stroke-width:4.06px;}.cls-21{stroke-width:4.45px;}.cls-22{stroke-width:2.79px;}.cls-23{stroke-width:3.25px;}.cls-24{stroke-width:3.72px;}</style></defs><title>하단</title><g id="레이어_2" data-name="레이어 2"><g id="레이어_1-2" data-name="레이어 1"><path class="cls-1" d="M161.21,2495.29H4007.79A161.22,161.22,0,0,0,4169,2334.07V1.62C3772.08-12.08,3471.68,63,3255.51,146.47c-789,304.65-1007.31,933.69-1592.46,897.82-328.88-20.15-369.07-225.53-763.29-280C561.62,717.48,250.21,821.43,0,955.9V2334.07A161.22,161.22,0,0,0,161.21,2495.29Z"/><rect class="cls-2" x="459.23" y="1965.05" width="288.25" height="30.61"/><rect class="cls-2" x="462.47" y="2076.32" width="280.59" height="30.61"/><path class="cls-2" d="M793.23,1938.55q-20.34,2.27-40,4v.11l-117.89,4.94q-32.6,1.37-65.21,0l-117.9-4.94v-.11q-19.62-1.74-40-4-26.18-2.91-51-6.41l5.92,5.46a164.11,164.11,0,0,0,85.06,41.05h0v-16.84l301-.24v17.08h0a164.11,164.11,0,0,0,85.07-41.05l5.91-5.46Q819.4,1935.62,793.23,1938.55Z"/><path class="cls-2" d="M788.2,2044.12q-18,2.19-35.43,3.91-3.48.34-7,.43L634,2051.18q-31.2,1.44-62.43,0l-111.13-2.7q-4.19-.11-8.34-.51-17.1-1.71-34.75-3.85-25.49-3.09-49.67-6.8l5.76,5.8a154.92,154.92,0,0,0,82.82,43.52h0v-17.86l293-.25v18.11h0a155,155,0,0,0,82.82-43.52l5.76-5.8Q813.69,2041,788.2,2044.12Z"/><path class="cls-2" d="M818.27,2030.5c-26.91-6.14-51.37-16.62-71.38-30.59H458.64c-20,14-44.47,24.45-71.38,30.59l-18.75,4.27,99,7.2a1862.4,1862.4,0,0,0,269.64,0l99.86-7.24Z"/><path class="cls-2" d="M868.48,2111.19H337.05v83.32H574.81v-33.16a28.06,28.06,0,1,1,56.12,0v33.16H868.48Z"/><line class="cls-3" x1="337.32" y1="2124.79" x2="868.75" y2="2124.79"/><line class="cls-4" x1="377.99" y1="2107.9" x2="377.99" y2="2201.47"/><line class="cls-4" x1="433.83" y1="2107.9" x2="433.83" y2="2201.47"/><line class="cls-4" x1="488.25" y1="2111.59" x2="488.25" y2="2205.17"/><line class="cls-4" x1="538.42" y1="2111.59" x2="538.42" y2="2205.17"/><line class="cls-4" x1="669.64" y1="2111.59" x2="669.64" y2="2205.17"/><line class="cls-4" x1="725.48" y1="2107.9" x2="725.48" y2="2201.47"/><line class="cls-4" x1="779.9" y1="2107.9" x2="779.9" y2="2201.47"/><line class="cls-4" x1="830.06" y1="2107.9" x2="830.06" y2="2201.47"/><path class="cls-2" d="M823.62,1907.88q-32.77,2.79-65.68,4.15v-40.24l-2.87.3V1853.6h-7.65v19.26a1444.71,1444.71,0,0,1-284.42.07v-19.74h-7.65v19l-3.51-.37h0v41q-33.31-1.14-66.5-4.37l-23.63-2.3v20.47l14.84,1.71a1978.48,1978.48,0,0,0,452.43,0l14.84-1.71v-20.47Z"/><line class="cls-5" x1="476.55" y1="1965.05" x2="476.55" y2="1995.66"/><line class="cls-5" x1="495.05" y1="1965.05" x2="495.05" y2="1995.66"/><line class="cls-5" x1="513.55" y1="1965.05" x2="513.55" y2="1995.66"/><line class="cls-5" x1="532.05" y1="1965.05" x2="532.05" y2="1995.66"/><line class="cls-5" x1="550.55" y1="1965.05" x2="550.55" y2="1995.66"/><line class="cls-5" x1="569.04" y1="1965.05" x2="569.04" y2="1995.66"/><line class="cls-5" x1="587.54" y1="1965.05" x2="587.54" y2="1995.66"/><line class="cls-5" x1="606.04" y1="1965.05" x2="606.04" y2="1995.66"/><line class="cls-5" x1="624.54" y1="1965.05" x2="624.54" y2="1995.66"/><line class="cls-5" x1="643.04" y1="1965.05" x2="643.04" y2="1995.66"/><line class="cls-5" x1="661.53" y1="1965.05" x2="661.53" y2="1995.66"/><line class="cls-5" x1="680.03" y1="1965.05" x2="680.03" y2="1995.66"/><line class="cls-5" x1="698.53" y1="1965.05" x2="698.53" y2="1995.66"/><line class="cls-5" x1="717.03" y1="1965.05" x2="717.03" y2="1995.66"/><line class="cls-5" x1="735.53" y1="1965.05" x2="735.53" y2="1995.66"/><line class="cls-6" x1="478.87" y1="2048.91" x2="478.87" y2="2109.77"/><line class="cls-6" x1="513.74" y1="2047.27" x2="513.74" y2="2106.93"/><line class="cls-6" x1="548.6" y1="2047.27" x2="548.6" y2="2106.93"/><line class="cls-6" x1="661.69" y1="2047.27" x2="661.69" y2="2106.93"/><line class="cls-6" x1="696.55" y1="2047.27" x2="696.55" y2="2106.93"/><line class="cls-6" x1="731.41" y1="2047.27" x2="731.41" y2="2109.77"/><rect class="cls-1" x="590.07" y="1929.39" width="25.39" height="25.39"/><path class="cls-7" d="M357.24,1914.05l4.71.63q44.61,5.94,89.56,8.75l7.7.48v-42.76a1616.23,1616.23,0,0,0,289.5.29l3.26-.29v42.76l23.52-1.56q25.82-1.72,51.45-5.39l20.43-2.91"/><rect class="cls-2" x="1328.08" y="1679.77" width="60.07" height="28.37"/><polygon class="cls-2" points="1418.18 1796.63 1418.18 1742.34 1298.05 1742.34 1298.05 1796.63 1287.62 1796.63 1287.62 2076.88 1428.61 2076.88 1428.61 1796.63 1418.18 1796.63"/><rect class="cls-2" x="1236.73" y="2178.47" width="242.77" height="26.7"/><rect class="cls-2" x="1350.19" y="1606.44" width="15.85" height="80.29"/><rect class="cls-2" x="1356.45" y="1514.37" width="3.34" height="119.9"/><rect class="cls-2" x="1310.14" y="1711.48" width="95.94" height="26.7"/><polyline class="cls-8" points="1331.01 1742.34 1331.01 2063.72 1385.22 2063.72 1385.22 1742.34"/><line class="cls-9" x1="1331.01" y1="1762.07" x2="1385.22" y2="1762.07"/><polyline class="cls-10" points="1331.01 1799.49 1287.96 1799.49 1287.96 2081.89"/><polyline class="cls-10" points="1385.22 1799.49 1428.95 1799.49 1428.95 2081.89"/><line class="cls-9" x1="1349.1" y1="1762.07" x2="1349.1" y2="2033.92"/><line class="cls-9" x1="1369.96" y1="1762.07" x2="1369.96" y2="2033.92"/><line class="cls-11" x1="1306.34" y1="1741.35" x2="1306.34" y2="2073.39"/><line class="cls-11" x1="1317.32" y1="1741.35" x2="1317.32" y2="2073.39"/><line class="cls-11" x1="1398.44" y1="1741.35" x2="1398.44" y2="2073.39"/><line class="cls-11" x1="1409.43" y1="1741.35" x2="1409.43" y2="2073.39"/><polygon class="cls-2" points="1439.45 2120.77 1439.45 2080.16 1276.77 2080.16 1276.77 2120.77 1262.59 2120.77 1262.59 2173.42 1453.64 2173.42 1453.64 2120.77 1439.45 2120.77"/><polyline class="cls-12" points="1276.77 2098.33 1320.08 2098.33 1320.08 2175.56"/><polyline class="cls-12" points="1440.21 2098.33 1396.91 2098.33 1396.91 2175.56"/><line class="cls-13" x1="1316.07" y1="1708.45" x2="1316.07" y2="1739.7"/><line class="cls-13" x1="1322.65" y1="1708.45" x2="1322.65" y2="1739.7"/><line class="cls-13" x1="1329.23" y1="1708.45" x2="1329.23" y2="1739.7"/><line class="cls-13" x1="1335.81" y1="1708.45" x2="1335.81" y2="1739.7"/><line class="cls-13" x1="1342.39" y1="1708.45" x2="1342.39" y2="1739.7"/><line class="cls-13" x1="1348.97" y1="1708.45" x2="1348.97" y2="1739.7"/><line class="cls-13" x1="1355.55" y1="1708.45" x2="1355.55" y2="1739.7"/><line class="cls-13" x1="1362.13" y1="1708.45" x2="1362.13" y2="1739.7"/><line class="cls-13" x1="1368.71" y1="1708.45" x2="1368.71" y2="1739.7"/><line class="cls-13" x1="1375.29" y1="1708.45" x2="1375.29" y2="1739.7"/><line class="cls-13" x1="1381.86" y1="1708.45" x2="1381.86" y2="1739.7"/><line class="cls-13" x1="1388.44" y1="1708.45" x2="1388.44" y2="1739.7"/><line class="cls-13" x1="1395.02" y1="1708.45" x2="1395.02" y2="1739.7"/><line class="cls-13" x1="1401.6" y1="1708.45" x2="1401.6" y2="1739.7"/><line class="cls-7" x1="1306.21" y1="1726.55" x2="1408.18" y2="1726.55"/><line class="cls-8" x1="1342.39" y1="1679.77" x2="1342.39" y2="1708.14"/><line class="cls-8" x1="1375.29" y1="1679.77" x2="1375.29" y2="1708.14"/><path class="cls-2" d="M2316.07,2174.43c.13-10.08,7.78-18.21,17.21-18.21s17.08,8.13,17.21,18.21h0v30.66l8.72.08L2345,2127H2217.46l23.28,77.84,21.29.06v-30.43h0c.13-10.08,7.78-18.21,17.21-18.21s17.08,8.13,17.21,18.21h0V2205l19.59.05v-30.57Z"/><path class="cls-2" d="M2181.73,2170.81c.13-10.09,7.79-18.21,17.22-18.21s17.08,8.12,17.21,18.21h0v34.36H2233l-26.33-94.87H2093.92l19.58,94.87h14.2v-34.36h0c.13-10.09,7.79-18.21,17.22-18.21s17.08,8.12,17.21,18.21h0v34.36h19.6v-34.36Z"/><path class="cls-2" d="M2144.74,2071.39a15.75,15.75,0,1,1,31.49,0h0v29.72l19.61.5-24.3-70.75c-11.8-5-31.71-9.8-58.05-9.62-25.28.17-47.1,2.66-58.73,7.56l35.1,70.07,5.43.14v-27.62h0a15.75,15.75,0,1,1,31.5,0h0v28.43l17.93.47v-28.9Z"/><path class="cls-2" d="M2091.89,2142.89H1876.55l-9.11,61.91,20.59,0v-30.4h0c.13-10.08,7.79-18.21,17.22-18.21s17.08,8.13,17.21,18.21h0v30.46l19.6,0v-30.49h0c.13-10.08,7.79-18.21,17.22-18.21s17.08,8.13,17.21,18.21h0V2205l19.6,0v-30.57h0c.13-10.08,7.79-18.21,17.22-18.21s17.08,8.13,17.21,18.21h0v30.62l19.6,0v-30.65h0c.13-10.08,7.79-18.21,17.22-18.21s17.08,8.13,17.21,18.21h0v30.71l19.5,0Z"/><path class="cls-2" d="M2029.4,2104.54c.11-8.84,6.82-16,15.08-16s15,7.12,15.09,16h0v28.21h31l-31.72-62.27h-191l8.1,62.27h11.47v-28.21h0c.11-8.84,6.82-16,15.08-16s15,7.12,15.09,16h0v28.21h17.17v-28.21h0c.11-8.84,6.82-16,15.08-16s15,7.12,15.08,16h0v28.21h17.17v-28.21h0c.12-8.84,6.82-16,15.09-16s15,7.12,15.08,16h0v28.21h17.17v-28.21Z"/><path class="cls-2" d="M1988.13,2030.68c.11-8.84,6.82-16,15.08-16s15,7.12,15.09,16h0V2061l38.49.07-24.3-67.34c-25-1.25-51.82-1.64-80.33-.73-28.33.91-55,3-79.66,5.8l-4.39,61.91,25.32.05v-30.07h0c.12-8.84,6.83-16,15.09-16s15,7.12,15.08,16h0v30.13l17.17,0v-30.16h0c.12-8.84,6.82-16,15.08-16s15,7.12,15.09,16h0v30.22l17.17,0Z"/><path class="cls-2" d="M1978.68,1956.09c.11-8.83,6.82-16,15.08-16s15,7.13,15.08,16h0v28.22h21.6l-26.32-87.62h0a257.22,257.22,0,0,0-128.29,23.55l-7.74,3.6.34,70.6,15.53-6.51v-31.84h0c.12-8.83,6.82-16,15.09-16s15,7.13,15.08,16h0v30.13l17.17,0v-30.17h0c.11-8.83,6.82-16,15.08-16s15,7.13,15.09,16h0v30.23l17-2,.18-28.22Z"/><path class="cls-2" d="M2305.21,1995.17c-10.12-6.52-44.55-20.28-79.65-29-37.14-9.19-64.81-9.41-78.31-8.69l.67,57.21,17.56,5.79v-7.21h0c.12-8.84,6.82-16,15.08-16s15,7.12,15.09,16h0v29l17.17.1v-29.1h0c.11-8.84,6.82-16,15.08-16s15,7.12,15.09,16h0v29.28l17,4,.19-33.28h0c.11-8.84,6.82-16,15.08-16s15,7.12,15.08,16h0l-1.34,35.45,19.58,2.18Z"/><path class="cls-2" d="M2275.61,2088.61c.11-8.84,6.82-16,15.08-16s15,7.12,15.09,16h0V2119h21l-4.72-58.65c-18.37-3.65-44.1-8.92-66.16-10.86a563.7,563.7,0,0,0-69.87-1.81l28,71.32h14.18v-30.38h0c.12-8.84,6.82-16,15.08-16s15,7.12,15.09,16h0V2119h17.17Q2275.62,2103.8,2275.61,2088.61Z"/><circle class="cls-2" cx="2868.54" cy="1722.59" r="56.69"/><circle class="cls-2" cx="2868.54" cy="2023.89" r="56.69"/><rect class="cls-2" x="2860.63" y="1743.04" width="17.14" height="275.54"/><rect class="cls-2" x="2840.86" y="1743.04" width="8.15" height="275.54"/><rect class="cls-2" x="2888.56" y="1743.04" width="7.67" height="275.54"/><rect class="cls-2" x="2858.65" y="1558.4" width="19.78" height="156.89"/><rect class="cls-2" x="2850.98" y="2072.01" width="35.6" height="133.16"/><polygon class="cls-2" points="2875.6 2185 2819.83 2129.23 2858.84 2061.66 2841.71 2051.78 2763.93 2186.5 2781.05 2196.39 2814.18 2139.01 2867.89 2192.71 2875.6 2185"/><polygon class="cls-2" points="2861.49 2185 2917.26 2129.23 2878.24 2061.66 2895.37 2051.78 2973.16 2186.5 2956.03 2196.39 2922.9 2139.01 2869.2 2192.71 2861.49 2185"/><path class="cls-2" d="M2872.74,1562.71V1516.2h-2.64V1470h-3.95v46.23h-2.64v46.51a29,29,0,1,0,9.23,0Z"/><line class="cls-14" x1="2845.05" y1="1785.23" x2="2864.83" y2="1794.46"/><line class="cls-14" x1="2845.05" y1="1818.19" x2="2864.83" y2="1827.42"/><line class="cls-14" x1="2845.05" y1="1851.15" x2="2864.83" y2="1860.38"/><line class="cls-14" x1="2845.05" y1="1884.11" x2="2864.83" y2="1893.34"/><line class="cls-14" x1="2845.05" y1="1917.07" x2="2864.83" y2="1926.3"/><line class="cls-14" x1="2845.05" y1="1950.03" x2="2864.83" y2="1959.26"/><line class="cls-14" x1="2892.52" y1="1785.23" x2="2872.74" y2="1794.46"/><line class="cls-14" x1="2892.52" y1="1818.19" x2="2872.74" y2="1827.42"/><line class="cls-14" x1="2892.52" y1="1851.15" x2="2872.74" y2="1860.38"/><line class="cls-14" x1="2892.52" y1="1884.11" x2="2872.74" y2="1893.34"/><line class="cls-14" x1="2892.52" y1="1917.07" x2="2872.74" y2="1926.3"/><line class="cls-14" x1="2892.52" y1="1950.03" x2="2872.74" y2="1959.26"/><polygon class="cls-2" points="3436.44 2014.01 3349.08 2204.93 3523.79 2204.93 3436.44 2014.01"/><polygon class="cls-2" points="3441.84 2011.31 3532.8 2200.43 3567.92 2118.48 3441.84 2011.31"/><polygon class="cls-2" points="3673.29 1919.45 3799.36 2204.93 3898.43 2204.93 3673.29 1919.45"/><polygon class="cls-2" points="3665.95 1920.35 3543.33 2205.16 3788.56 2205.16 3665.95 1920.35"/><line class="cls-15" x1="3392.31" y1="2062.64" x2="3463.89" y2="2062.64"/><line class="cls-16" x1="3637.26" y1="1963.58" x2="3688.6" y2="1963.58"/><line class="cls-17" x1="3622.85" y1="2003.2" x2="3708.84" y2="2003.2"/><line class="cls-18" x1="3611.15" y1="2042.83" x2="3720.12" y2="2042.83"/><line class="cls-19" x1="3587.73" y1="2082.45" x2="3738.13" y2="2082.45"/><line class="cls-20" x1="3576.03" y1="2122.08" x2="3757.04" y2="2122.08"/><line class="cls-21" x1="3558.01" y1="2161.7" x2="3775.05" y2="2161.7"/><line class="cls-22" x1="3392.31" y1="2098.66" x2="3477.86" y2="2098.66"/><line class="cls-23" x1="3377.9" y1="2134.69" x2="3494.07" y2="2134.69"/><line class="cls-24" x1="3358.99" y1="2170.71" x2="3511.18" y2="2170.71"/></g></g></svg>