<svg xmlns="http://www.w3.org/2000/svg" viewBox="0 0 979.84 3135"><defs><style>.cls-1{opacity:0.6;}.cls-2{fill:#fff;}</style></defs><title>covid19</title><g id="레이어_2" data-name="레이어 2"><g id="레이어_1-2" data-name="레이어 1"><g class="cls-1"><path class="cls-2" d="M176.37,1188.76l16.86-43.53q45.57,10.18,66.6,33.9t21,58.36q0,43.53-33.53,70.58-38.73,31.13-104.49,31.13-69.48,0-108.75-31.34Q0,1280.59,0,1234.61q0-37.45,25.57-62.68,18.15-18,53.91-26.33l13,44.46q-22,4.28-33.81,17a42.66,42.66,0,0,0-11.77,30q0,24.69,21.49,40.28t71,15.59q51.32,0,73-15.19T234,1238.23q0-17.79-13.8-30.76T176.37,1188.76Z"/><path class="cls-2" d="M142.1,1125.44q-48.54,0-79.94-14.36t-46.78-37.52Q0,1050.42,0,1017.43q0-47.79,36.5-77.9t103.93-30.11q68.17,0,106.53,31.87,33.9,28,33.9,76,0,48.36-33.53,76.33Q209,1125.45,142.1,1125.44Zm-1.86-46.32q46.88,0,70.31-17.81T234,1017.15q0-26.52-23.25-44t-71.42-17.44q-47.25,0-69.85,17t-22.6,44.43q0,27.47,22.79,44.72T140.24,1079.12Z"/><path class="cls-2" d="M276.23,826.63,4.63,906.31V857.58l201-56.41-201-54.55V698.81l271.6,79.87Z"/><path class="cls-2" d="M276.23,687H4.63V642.16h271.6Z"/><path class="cls-2" d="M4.63,608.85v-82q0-31.1,7-46.92T35,450.79q16.5-13.32,42.8-20.91t65.4-7.59q35.21,0,61.23,8t41.22,20.17a78.23,78.23,0,0,1,22.88,29.52q7.69,17.31,7.69,44.51v84.4ZM50.58,564h179.7V530.3q0-21.67-4.07-31.4A37.78,37.78,0,0,0,213.9,483q-8.22-6.19-26-10.28t-46.82-4.07q-30.17,0-47.57,4.16t-27.39,13A41.32,41.32,0,0,0,53,507.14q-2.4,9.45-2.4,36.5Z"/><path class="cls-2" d="M203.79,406.39H151.73V322.47h52.06Z"/><path class="cls-2" d="M276.23,199.68v42.61H80q26.86,23.9,39.46,55.21H72.25q-7.2-17.79-25.77-36.87A99.82,99.82,0,0,0,3.71,234.14V199.68Z"/><path class="cls-2" d="M213.24,144.51l-5.56-41.32q30.19-3,30.2-24.08,0-14.26-15-23.35t-61.1-11.67q11.31,8,17.05,18a43.84,43.84,0,0,1,5.74,22.23q0,25.39-24.24,44.93T95.87,148.77q-42.93,0-67.55-20.57T3.71,77.44q0-33.72,31.73-55.58T140.62,0q74.74,0,107.49,22.79t32.75,59.1q0,25.19-16.58,41.59T213.24,144.51ZM99.76,47.8q-25.51,0-39.21,9.63T46.87,79.29q0,11.86,11.28,19.73t37.54,7.88q26.27,0,38.46-8.62t12.21-21.21q0-12-11.65-20.66T99.76,47.8Z"/></g><g class="cls-1"><path class="cls-2" d="M972,3100.94V3135H492.33V2991.65H525v109.29ZM597.35,2871c-44.7,0-72.38,29.09-72.38,73.8v26.26H492.33v-31.94c0-58.9,47.55-102.18,106.44-102.18h51.1c58.9,0,102.18,43.28,102.18,102.18v141.22H720.12V2944.82c0-44.71-27.68-73.8-72.38-73.8Z"/><path class="cls-2" d="M972,2778.07v35.48l-479.7-165.34v-2.13l49-17ZM823,2511.25v194.44l-33.35-11.36v-171L492.33,2625.5V2590L972,2424.68v35.48Z"/><path class="cls-2" d="M607.29,2294.84v34.06c-81.61-.71-122.77-49.67-122.77-147.6a1016.79,1016.79,0,0,1,7.81-120.64h34.06s-7.8,68.83-7.8,128.44c0,61,25.54,105.74,86.57,105.74Zm250.5-257.6c77.34,0,118.5,44,121.34,139.09H944.36c-1.42-64.58-25.55-105-85.87-105H827.27c-42.58,0-66.7,22.7-73.09,73.09l-9.93,82.31c-7.1,56.77-41.87,102.19-102.19,102.19H626.45v-34.06h9.93c44,0,68.13-23.42,73.8-73.09l9.94-81.61c7.1-57.48,41.87-102.9,102.18-102.9Zm86.57,159.67h35.48c-.71,66-7.1,129.86-7.1,129.86H936.55S943.65,2254.39,944.36,2196.91Z"/><path class="cls-2" d="M607.29,1901.72v34.06c-81.61-.71-122.77-49.67-122.77-147.6a1016.6,1016.6,0,0,1,7.81-120.63h34.06s-7.8,68.83-7.8,128.44c0,61,25.54,105.73,86.57,105.73Zm250.5-257.59c77.34,0,118.5,44,121.34,139.09H944.36c-1.42-64.58-25.55-105-85.87-105H827.27c-42.58,0-66.7,22.71-73.09,73.09l-9.93,82.32c-7.1,56.77-41.87,102.18-102.19,102.18H626.45v-34.06h9.93c44,0,68.13-23.41,73.8-73.09l9.94-81.6c7.1-57.48,41.87-102.9,102.18-102.9Zm86.57,159.67h35.48c-.71,66-7.1,129.86-7.1,129.86H936.55S943.65,1861.27,944.36,1803.8Z"/><path class="cls-2" d="M972,1500.09v34.06H492.33V1390.81H525v109.28ZM597.35,1270.18c-44.7,0-72.38,29.09-72.38,73.8v26.25H492.33V1338.3c0-58.9,47.55-102.18,106.44-102.18h51.1c58.9,0,102.18,43.28,102.18,102.18v141.21H720.12V1344c0-44.71-27.68-73.8-72.38-73.8Z"/><path class="cls-2" d="M634.25,814.62h31.23v34.06H632.83c-89.41,0-115,68.12-115,129.86s25.54,129.86,115,129.86H777.6v34.06H634.25c-112.12,0-149.73-71.67-149.73-163.92S522.13,814.62,634.25,814.62ZM833,848.68H686.77V814.62H830.11c112.12,0,149.73,71,149.73,163.92s-37.61,163.92-149.73,163.92H798.89V1108.4H833c89.41,0,113.54-68.12,113.54-129.86S922.36,848.68,833,848.68Z"/><path class="cls-2" d="M972,655.68v34.06H492.33V546.4H525V655.68ZM597.35,425.76c-44.7,0-72.38,29.1-72.38,73.8v26.26H492.33V493.89c0-58.9,47.55-102.19,106.44-102.19h51.1c58.9,0,102.18,43.29,102.18,102.19V635.1H720.12V499.56c0-44.7-27.68-73.8-72.38-73.8Zm168.89,36.9L972,357.64V396L766.24,501.69Z"/><path class="cls-2" d="M492.33,323.59V144.76H972v34.06H525V323.59ZM525,124.18H492.33V0H525Z"/></g></g></g></svg>