<svg xmlns="http://www.w3.org/2000/svg" xmlns:xlink="http://www.w3.org/1999/xlink" viewBox="0 0 2535.29 1598.08"><defs><style>.cls-1{opacity:0.8;}.cls-2{fill:#fff;}</style></defs><title>travelmonday</title><g id="레이어_2" data-name="레이어 2"><g id="레이어_1-2" data-name="레이어 1"><g class="cls-1"><path class="cls-2" d="M279.9,1588.81H253.26V1440.56H167.94q-8.49,29.34-29.15,45t-51.93,15.63q-40.92,0-63.89-26.83T0,1398.86v-36.29q0-48.24,23-75.08t63.89-26.84q30.89,0,51.55,15.64t29.53,44.59h85.32v-85.32H279.9ZM147.09,1367.59q0-22-4.24-37.44t-12.17-25.29a45.88,45.88,0,0,0-19.11-14.29,66.65,66.65,0,0,0-24.71-4.43,66.6,66.6,0,0,0-24.7,4.43,45.88,45.88,0,0,0-19.11,14.29q-7.92,9.84-12.16,25.29t-4.25,37.44v26.64q0,22,4.25,37.64t12.16,25.48a45.88,45.88,0,0,0,19.11,14.29,66.4,66.4,0,0,0,24.7,4.44,66.45,66.45,0,0,0,24.71-4.44,45.88,45.88,0,0,0,19.11-14.29q7.92-9.84,12.17-25.48t4.24-37.64Zm26.64,31.27q0,4.26-.19,8.5c-.13,2.84-.33,5.66-.58,8.49h80.3v-70.26H173c.25,2.84.45,5.73.58,8.68s.19,5.86.19,8.69Z"/><path class="cls-2" d="M403.05,1279.19v-43.63h27v43.63h66v23.54H331.24v-23.54Zm13.51,165.62a93,93,0,0,1-29.53-4.44,71.23,71.23,0,0,1-22.78-12.16,57.32,57.32,0,0,1-14.67-17.57,44.33,44.33,0,0,1-5.21-21v-13.9a45.49,45.49,0,0,1,5.21-21.23,54.45,54.45,0,0,1,14.67-17.57,73.58,73.58,0,0,1,22.78-12,100.45,100.45,0,0,1,59.07,0,73.58,73.58,0,0,1,22.78,12,54.57,54.57,0,0,1,14.67,17.57,45.49,45.49,0,0,1,5.21,21.23v13.9a44.33,44.33,0,0,1-5.21,21,57.46,57.46,0,0,1-14.67,17.57,71.23,71.23,0,0,1-22.78,12.16A93,93,0,0,1,416.56,1444.81Zm0-101.92q-21.62,0-34.55,10.22t-12.93,24.14v10.8q0,13.9,12.93,24.14t34.55,10.23q21.63,0,34.56-10.23t12.93-24.14v-10.8q0-13.9-12.93-24.14T416.56,1342.89ZM520.8,1598.08a234.74,234.74,0,0,1-40.92-3.48,134.28,134.28,0,0,1-34.94-10.81q-15.26-7.33-24.32-18.72t-9.07-27.22v-14.28q0-15.84,9.07-27.22t24.32-18.54a139.46,139.46,0,0,1,34.94-10.61,243.07,243.07,0,0,1,81.85,0A134.14,134.14,0,0,1,596.67,1478q15.24,7.34,24.32,18.73t9.07,27.21v13.9q0,15.83-9.07,27.22t-24.32,18.72a134.52,134.52,0,0,1-34.94,10.81A234.94,234.94,0,0,1,520.8,1598.08Zm0-111.19a209.28,209.28,0,0,0-29.53,2.12,122.1,122.1,0,0,0-26.83,6.76q-12,4.63-19.31,12a24.19,24.19,0,0,0-7.33,17.76v10.81a24.19,24.19,0,0,0,7.33,17.76q7.33,7.32,19.31,12a122.1,122.1,0,0,0,26.83,6.76,206.79,206.79,0,0,0,59.07,0A118.93,118.93,0,0,0,577,1566a57.58,57.58,0,0,0,19.3-12,23.88,23.88,0,0,0,7.53-17.76V1525.5a23.88,23.88,0,0,0-7.53-17.76,57.44,57.44,0,0,0-19.3-12,118.93,118.93,0,0,0-26.64-6.76A209.53,209.53,0,0,0,520.8,1486.89Zm107.33-33.2H601.49v-100H551.3v84.94H524.66V1240.19H551.3v89.19h50.19v-93.82h26.64Z"/><path class="cls-2" d="M865.17,1352.92q-.78,5-9.07,13.71t-21,21q-10,9.66-25.67,23t-31.86,26.06l-17-19.69q15.83-11.58,32.62-25.67t29.92-27.22a159,159,0,0,0,14.48-16.21,67.28,67.28,0,0,0,8.11-13.71,48.92,48.92,0,0,0,3.66-14.67q.78-7.9.78-18.73v-49.41h27.79V1300q0,10.82.77,18.34a46.52,46.52,0,0,0,3.67,14.09,57.08,57.08,0,0,0,8.5,13.32A139.5,139.5,0,0,0,906.1,1361q14.26,12.36,28.95,24.13t27.41,21l-16.21,18.92q-15.45-11.58-28-21.81t-22.59-18.73q-27.42-23.16-30.11-31.66Zm79.15,98.83a184.69,184.69,0,0,1,41.11,4.45,121.88,121.88,0,0,1,34.17,12.93q14.67,8.49,23.16,20.66a46.43,46.43,0,0,1,8.5,27.21v15.06a46.46,46.46,0,0,1-8.5,27.22q-8.49,12.17-23.16,20.65a126.12,126.12,0,0,1-34.17,13.13,184.87,184.87,0,0,1-82.23,0A126.12,126.12,0,0,1,869,1579.93q-14.67-8.49-23.16-20.65a46.45,46.45,0,0,1-8.49-27.22V1517a47.06,47.06,0,0,1,8.49-27.6q8.49-12.17,23.16-20.66A118.47,118.47,0,0,1,903.2,1456,193.43,193.43,0,0,1,944.32,1451.75Zm0,122.77a152.27,152.27,0,0,0,29.92-2.89,105.24,105.24,0,0,0,25.86-8.49,55.94,55.94,0,0,0,18.15-13.51,27.44,27.44,0,0,0,6.76-18.35v-13.12a27.43,27.43,0,0,0-6.76-18.34,56.08,56.08,0,0,0-18.15-13.51,105.67,105.67,0,0,0-25.86-8.5,156.33,156.33,0,0,0-59.84,0,105.61,105.61,0,0,0-25.87,8.5,55.82,55.82,0,0,0-18.14,13.51,27.38,27.38,0,0,0-6.76,18.34v13.12a27.39,27.39,0,0,0,6.76,18.35,55.68,55.68,0,0,0,18.14,13.51,105.18,105.18,0,0,0,25.87,8.49A152.19,152.19,0,0,0,944.32,1574.52Zm78-259.43v-79.53h27v208.09h-27V1339H942.77v-23.94Z"/><path class="cls-2" d="M1213.4,1276.09h88.41v23.55H1098.74v-23.55h87.64v-44.78h27Zm-13.51,173a109.1,109.1,0,0,1-32.62-4.63,81.37,81.37,0,0,1-25.48-12.74,61.37,61.37,0,0,1-16.6-18.72,45.2,45.2,0,0,1-6-22.59v-13.9a45.2,45.2,0,0,1,6-22.58,61.52,61.52,0,0,1,16.6-18.73,81.36,81.36,0,0,1,25.48-12.73,117,117,0,0,1,65.24,0,81.46,81.46,0,0,1,25.48,12.73,61.82,61.82,0,0,1,16.61,18.73,45.39,45.39,0,0,1,6,22.58v13.9a45.4,45.4,0,0,1-6,22.59,61.67,61.67,0,0,1-16.61,18.72,81.48,81.48,0,0,1-25.48,12.74A109.14,109.14,0,0,1,1199.89,1449.05Zm0-108.48a80.67,80.67,0,0,0-22.39,2.89,54.49,54.49,0,0,0-17.18,8.11,41,41,0,0,0-11.2,12,27,27,0,0,0-4,14.09v11.58a26.69,26.69,0,0,0,4,14.29,41.86,41.86,0,0,0,11.2,11.77,54.27,54.27,0,0,0,17.18,8.11,87.15,87.15,0,0,0,44.59,0,54.13,54.13,0,0,0,17.37-8.11,41.86,41.86,0,0,0,11.2-11.77,26.69,26.69,0,0,0,4-14.29v-11.58a27,27,0,0,0-4-14.09,41,41,0,0,0-11.2-12,54.34,54.34,0,0,0-17.37-8.11A81.27,81.27,0,0,0,1199.89,1340.57Zm69.49,126.63a200,200,0,0,1,42.86,4.25q19.29,4.24,33,12t21.23,18.54a41,41,0,0,1,7.53,23.93V1539a41,41,0,0,1-7.53,23.93q-7.53,10.82-21.23,18.54t-33,12a218.69,218.69,0,0,1-85.71,0q-19.3-4.26-33-12t-21.23-18.54a41,41,0,0,1-7.53-23.93v-13.13a41,41,0,0,1,7.53-23.93q7.53-10.82,21.23-18.54t33-12A199.86,199.86,0,0,1,1269.38,1467.2Zm0,107.71a164.13,164.13,0,0,0,30.5-2.7,109.51,109.51,0,0,0,24.91-7.53q10.61-4.83,16.79-11.77a22.78,22.78,0,0,0,6.18-15.45v-10a22,22,0,0,0-6.18-15.25q-6.18-6.75-16.79-11.78a103.62,103.62,0,0,0-24.91-7.72,173.62,173.62,0,0,0-61,0,103.39,103.39,0,0,0-24.9,7.72q-10.62,5-16.79,11.78a22,22,0,0,0-6.18,15.25v10a22.73,22.73,0,0,0,6.18,15.45q6.16,6.94,16.79,11.77a109.26,109.26,0,0,0,24.9,7.53A164.13,164.13,0,0,0,1269.38,1574.91ZM1372.08,1300h53.66V1324h-53.66v47.87h53.66v23.94h-53.66v60.61h-26.64V1235.56h26.64Z"/><path class="cls-2" d="M1678.23,1266.44v24.33H1571.67v73.74h85.71v23.93h-85.71v82.62h27.8q12.35,0,24.13-.19t23.94-1q12.15-.76,25.09-1.93t27.6-3.47l3.09,23.94a525.55,525.55,0,0,1-56.94,5.78q-26.85,1.15-52.32,1.16h-49.8V1266.44Zm56.36,96.52V1242.9h27v328.15h-27V1387.67h-54V1363Zm95.75,225.47h-27V1235.56h27Z"/><path class="cls-2" d="M2193.63,1515.07v23.55h-324.3v-23.55ZM2031.09,1363q-2.31,5.79-13.32,15.64t-31.85,23.74q-17.37,11.58-39.57,24.9t-43,24.51l-14.67-21.61q25.48-13.12,46.71-25.68t34.75-21.81q14.28-9.64,23.55-17.37a65.55,65.55,0,0,0,14.48-16.41,57.09,57.09,0,0,0,7.14-19.3,151.16,151.16,0,0,0,1.93-26.45v-42.47h28.18v42.47a151.16,151.16,0,0,0,1.93,26.45,56.9,56.9,0,0,0,7.15,19.3,67,67,0,0,0,14.28,16.41,267.13,267.13,0,0,0,23.36,17.37q13.51,9.27,34.55,21.62t46.14,25.48L2158.49,1451q-20.85-11.19-42.66-24.31T2076.65,1402q-20.85-13.9-31.66-23.56T2031.48,1363Z"/><path class="cls-2" d="M2535.29,1515.07v23.55H2211v-23.55Zm-43.24-67.56H2258.48v-183H2489v23.17H2285.12v56.75H2487v23.16H2285.12v56.75h206.93Z"/></g><image class="cls-1" width="457" height="221" transform="translate(706.31) scale(4)" xlink:href="../../124_logo_white.png"/></g></g></svg>